<!DOCTYPE svg PUBLIC "-//W3C//DTD SVG 20010904//EN" "http://www.w3.org/TR/2001/REC-SVG-20010904/DTD/svg10.dtd">
<svg version="1.0" xmlns="http://www.w3.org/2000/svg" width="647px" height="682px" viewBox="0 0 6470 6820" preserveAspectRatio="xMidYMid meet">
<g id="layer1" fill="#000000" stroke="none">
 <path d="M3986 6393 c-50 -2 -95 -8 -100 -12 -6 -5 -96 -12 -200 -16 -105 -4 -197 -11 -205 -15 -9 -5 -122 -13 -251 -19 -129 -6 -238 -15 -243 -20 -6 -6 -6 -100 -1 -243 l9 -233 75 -10 75 -10 7 -45 c3 -25 7 -77 7 -116 1 -39 4 -74 9 -78 8 -8 32 -397 25 -408 -2 -5 -42 -8 -88 -8 -46 0 -87 -4 -90 -10 -3 -5 -46 -10 -94 -10 -114 0 -114 -1 -131 190 -7 80 -16 150 -20 155 -4 6 -11 53 -15 105 -4 52 -11 100 -15 105 -5 6 -10 35 -11 65 l-3 55 64 5 65 5 3 80 c1 44 -1 154 -5 245 l-8 165 -43 3 c-24 2 -49 -1 -55 -6 -7 -5 -82 -13 -167 -17 -85 -4 -159 -10 -165 -15 -5 -4 -117 -13 -248 -20 -131 -7 -240 -17 -243 -21 -3 -5 -40 -9 -82 -10 -42 0 -99 -4 -127 -7 -48 -7 -50 -9 -53 -40 -2 -18 1 -39 6 -45 5 -7 13 -64 17 -127 4 -63 11 -119 15 -125 5 -5 10 -23 12 -40 l3 -30 85 -3 c47 -1 94 -6 105 -11 11 -5 134 -12 274 -15 144 -3 259 -10 265 -16 5 -5 11 -35 14 -67 2 -32 8 -62 12 -68 4 -5 13 -75 20 -155 7 -80 16 -149 20 -155 4 -5 11 -50 15 -100 3 -49 9 -100 12 -112 4 -19 1 -23 -20 -23 -14 0 -29 -4 -32 -10 -3 -5 -39 -10 -78 -11 -40 0 -92 -4 -117 -7 -38 -6 -45 -11 -48 -32 -2 -14 -7 -34 -12 -45 -5 -11 -13 -87 -18 -169 -6 -81 -14 -152 -19 -157 -5 -5 -83 -12 -174 -15 -90 -3 -173 -9 -184 -14 -11 -5 -101 -11 -200 -14 -98 -4 -183 -10 -188 -15 -4 -4 -11 -79 -14 -167 -3 -87 -9 -163 -13 -169 -4 -5 -11 -100 -15 -210 -4 -110 -11 -204 -15 -210 -4 -5 -10 -70 -13 -143 -2 -74 -9 -138 -14 -143 -10 -10 -97 6 -118 21 -5 4 -28 11 -50 15 -22 4 -44 10 -50 15 -5 4 -29 13 -52 19 l-43 12 0 59 c0 32 5 62 10 65 13 8 13 162 -1 170 -9 6 -62 -13 -99 -35 -35 -21 -120 -60 -132 -60 -7 -1 -31 -12 -53 -25 -22 -14 -51 -29 -65 -35 -119 -49 -323 -153 -328 -168 -2 -6 8 -22 23 -35 95 -79 144 -122 176 -152 19 -19 40 -35 45 -35 6 0 25 -16 44 -35 19 -19 37 -35 40 -35 8 0 94 -76 151 -133 21 -20 42 -37 47 -37 5 0 20 -9 33 -20 l23 -21 18 23 c9 13 20 40 23 60 4 21 11 40 16 44 5 3 9 15 9 28 0 12 2 25 5 28 7 6 137 -11 156 -22 9 -4 42 -11 75 -15 32 -4 64 -11 69 -15 6 -4 53 -13 105 -20 52 -7 99 -17 105 -21 5 -5 21 -9 35 -9 50 0 59 -17 71 -129 5 -58 12 -108 15 -112 2 -4 30 -10 62 -14 31 -3 64 -10 73 -14 8 -5 56 -12 105 -16 49 -4 94 -11 99 -15 6 -5 66 -14 135 -20 69 -6 134 -15 145 -20 11 -4 43 -12 70 -16 55 -10 52 -4 72 -129 7 -46 10 -50 38 -53 17 -2 35 -7 40 -12 6 -4 62 -11 125 -15 65 -3 129 -13 148 -21 l32 -15 0 -104 c0 -57 -4 -106 -10 -110 -5 -3 -68 -8 -140 -12 -72 -3 -133 -10 -136 -15 -3 -4 -27 -8 -54 -8 -27 0 -51 -4 -55 -10 -7 -12 14 -229 25 -255 5 -11 12 -56 15 -100 4 -44 10 -84 14 -90 10 -16 27 -216 19 -221 -4 -3 -49 -2 -100 2 -91 7 -94 8 -123 43 -16 19 -38 43 -47 53 -10 10 -18 21 -18 24 0 9 -54 64 -63 64 -5 0 -27 13 -50 29 -74 52 -88 51 -152 -13 -61 -62 -69 -77 -79 -149 -7 -47 7 -139 24 -162 4 -5 11 -26 15 -45 4 -19 11 -39 15 -45 4 -5 11 -28 14 -50 9 -48 31 -85 52 -85 8 0 17 -7 20 -15 9 -22 71 -50 87 -38 6 6 24 13 39 17 19 4 34 20 51 54 51 100 61 112 89 112 15 0 29 -4 32 -9 4 -5 30 -12 59 -16 28 -4 57 -11 62 -15 6 -4 22 -10 36 -14 29 -6 34 -17 44 -111 4 -33 11 -64 15 -70 4 -5 11 -37 15 -70 4 -33 10 -64 15 -70 4 -5 10 -34 13 -64 4 -30 10 -58 15 -63 5 -5 128 -13 273 -19 145 -6 273 -15 284 -20 11 -4 38 -10 60 -11 31 -2 41 -7 43 -23 2 -11 7 -29 12 -40 5 -11 14 -45 19 -75 10 -57 1 -90 -23 -90 -7 0 -23 -11 -36 -25 -17 -18 -21 -31 -17 -55 11 -52 48 -123 89 -170 100 -113 92 -107 157 -115 52 -6 65 -4 96 15 19 12 35 26 35 31 0 5 7 9 15 9 7 0 31 21 52 46 21 26 46 54 56 63 14 13 17 33 17 122 0 107 0 108 -27 122 -16 7 -50 26 -77 41 -40 23 -58 27 -104 24 l-57 -3 -8 70 c-4 38 -5 75 -3 82 3 8 22 13 45 13 22 0 42 4 45 9 3 5 97 12 208 16 112 4 208 11 213 15 6 5 33 10 60 12 l50 3 0 260 0 260 132 3 c148 3 135 7 253 -81 61 -46 67 -48 110 -42 82 12 85 20 73 195 -6 83 -15 156 -21 163 -5 7 -13 32 -17 57 -10 63 -35 101 -83 127 -72 38 -117 48 -159 35 -73 -23 -83 -38 -93 -140 -9 -101 -13 -112 -39 -112 -9 0 -21 -4 -27 -9 -5 -5 -47 -11 -94 -13 l-85 -3 -6 40 c-4 22 -10 96 -14 165 -4 69 -11 130 -15 135 -4 6 -11 69 -15 140 -4 72 -11 135 -15 140 -5 6 -10 24 -12 40 l-3 30 -95 -3 c-52 -2 -99 -8 -105 -12 -5 -4 -59 -11 -120 -15 -60 -4 -116 -12 -122 -17 -7 -6 -20 -8 -28 -4 -13 5 -15 32 -13 188 l3 183 200 10 200 10 10 135 10 135 375 0 375 0 -3 70 c-2 38 -7 74 -12 80 -11 14 -22 128 -14 148 3 9 22 19 42 23 21 4 42 10 47 14 6 5 46 13 90 20 44 7 85 16 90 20 6 4 46 13 90 20 44 7 85 15 90 20 6 4 35 10 65 14 30 4 59 11 65 16 5 4 46 13 90 20 44 7 85 15 90 20 14 11 62 18 72 11 5 -3 14 -35 22 -71 7 -36 17 -69 22 -74 5 -6 9 -21 9 -35 0 -15 7 -39 15 -55 8 -15 15 -38 15 -50 0 -12 6 -30 13 -41 13 -17 17 -14 63 34 27 28 84 87 127 131 42 44 77 83 77 87 0 4 39 47 86 97 177 186 170 175 127 203 -16 10 -32 23 -36 30 -4 7 -13 13 -18 13 -6 0 -30 16 -53 35 -24 19 -48 35 -54 35 -6 0 -16 9 -22 20 -6 11 -17 20 -24 20 -7 0 -21 9 -31 20 -10 11 -24 20 -30 20 -7 0 -15 7 -19 15 -3 8 -12 15 -21 15 -8 0 -15 5 -15 10 0 6 -12 16 -27 23 -14 6 -38 23 -53 37 -15 14 -41 34 -58 45 -17 11 -56 38 -87 59 -36 26 -59 36 -65 30 -6 -6 -13 -68 -16 -140 -3 -71 -10 -138 -14 -149 -5 -11 -11 -33 -12 -50 l-3 -30 -155 -8 c-85 -4 -184 -6 -220 -5 -61 3 -65 5 -68 28 -2 14 -8 30 -12 35 -5 6 -11 28 -15 50 -4 22 -11 45 -15 50 -5 6 -13 36 -19 69 -6 32 -15 64 -20 70 -4 6 -12 29 -16 51 -4 22 -10 45 -14 50 -5 6 -14 39 -21 75 -7 36 -16 70 -21 75 -4 6 -10 28 -14 50 -4 22 -11 45 -15 50 -5 6 -13 36 -19 69 -6 32 -15 64 -20 70 -4 6 -12 28 -15 50 -4 21 -11 46 -16 55 -4 9 -12 29 -17 46 -10 34 -42 43 -150 44 -34 1 -64 5 -67 10 -3 5 -59 12 -123 16 -65 4 -122 11 -128 15 -5 4 -48 10 -94 13 -46 3 -88 10 -93 15 -6 6 -12 32 -15 59 -2 26 -8 57 -13 68 -4 11 -13 73 -19 138 -5 65 -13 122 -16 127 -8 13 -242 13 -250 0 -8 -13 -212 -13 -220 0 -3 5 -8 71 -11 147 -3 76 -9 147 -14 158 -5 11 -11 82 -13 158 l-4 137 31 14 c17 8 83 18 146 21 63 4 120 11 125 15 6 4 87 13 180 20 94 7 175 16 180 20 6 4 49 10 98 13 48 3 92 9 97 12 12 8 13 92 1 99 -4 3 -12 65 -16 138 -4 73 -11 138 -15 143 -5 6 -10 26 -12 45 l-3 35 -60 1 c-33 0 -100 -1 -149 -3z m-890 -3573 c5 -5 43 -10 84 -12 67 -3 75 -5 75 -23 0 -19 -8 -20 -119 -23 -73 -2 -123 1 -130 8 -5 5 -22 10 -37 10 -31 0 -44 13 -35 35 4 11 24 15 79 15 40 0 77 -4 83 -10z m0 -180 c5 -5 45 -10 89 -12 l79 -3 8 -39 c5 -21 7 -41 4 -43 -2 -2 -77 0 -167 4 l-163 8 -8 34 c-15 55 -7 61 75 61 40 0 77 -4 83 -10z m192 -242 c17 -17 15 -57 -2 -64 -8 -3 -88 -2 -178 3 -145 7 -163 10 -166 26 -9 45 -2 47 171 47 113 0 167 -4 175 -12z m336 -597 c3 -4 18 -11 33 -14 33 -7 95 -65 131 -122 23 -35 26 -51 26 -131 1 -72 -3 -98 -19 -129 -28 -53 -103 -125 -137 -132 -16 -3 -31 -10 -34 -14 -7 -12 -71 -12 -78 0 -3 4 -18 11 -34 14 -34 7 -109 79 -137 132 -16 31 -20 57 -19 129 0 80 3 96 26 131 36 57 98 115 131 122 15 3 30 10 33 14 3 5 20 9 39 9 19 0 36 -4 39 -9z m-621 -43 c37 -25 47 -37 84 -93 24 -36 27 -49 27 -132 0 -73 -3 -95 -17 -110 -9 -11 -17 -24 -17 -30 0 -19 -100 -101 -131 -108 -17 -4 -50 -4 -74 -1 -55 9 -137 82 -156 141 -7 22 -17 44 -21 50 -11 12 -10 119 1 131 5 5 14 26 20 46 14 41 97 124 134 132 44 9 118 -3 150 -26z"/>
 <path d="M3515 1628 c-34 -18 -45 -40 -45 -92 0 -46 3 -54 34 -78 47 -38 84 -36 124 5 25 26 32 42 32 73 0 77 -80 128 -145 92z"/>
 <path d="M2860 1640 c-21 -16 -25 -27 -25 -73 0 -67 22 -97 70 -97 32 0 47 12 73 57 16 29 15 44 -2 77 -29 56 -73 70 -116 36z"/>
 </g>

</svg>